<?xml version="1.0" encoding="UTF-8"?>
<svg xmlns="http://www.w3.org/2000/svg" xmlns:xlink="http://www.w3.org/1999/xlink" xmlns:svgjs="http://svgjs.com/svgjs" version="1.1" width="512" height="512" x="0" y="0" viewBox="0 0 512 512" style="enable-background:new 0 0 512 512" xml:space="preserve" class="">
  <g>
<circle xmlns="http://www.w3.org/2000/svg" style="" cx="256" cy="256" r="247.467" fill="#36b0b6" data-original="#366db6" class=""/>
<path xmlns="http://www.w3.org/2000/svg" style="" d="M298.667,85.333c-37.641,0-68.267,30.626-68.267,68.267v51.2h-42.667v34.133H230.4v110.933  c0,18.825-15.309,34.133-34.133,34.133s-34.133-15.309-34.133-34.133H128c0,37.641,30.626,68.267,68.267,68.267  s68.267-30.626,68.267-68.267V238.933H307.2V204.8h-42.667v-51.2c0-18.825,15.309-34.133,34.133-34.133S332.8,134.775,332.8,153.6  h34.133C366.933,115.959,336.307,85.333,298.667,85.333z" fill="#000000" data-original="#ffffff" class=""/>
<g xmlns="http://www.w3.org/2000/svg">
	<path style="" d="M256,512C114.842,512,0,397.158,0,256S114.842,0,256,0s256,114.842,256,256S397.158,512,256,512z    M256,17.067C124.254,17.067,17.067,124.254,17.067,256S124.254,494.933,256,494.933S494.933,387.746,494.933,256   S387.746,17.067,256,17.067z" fill="#000000" data-original="#4d007e" class=""/>
	<path style="" d="M196.267,426.667c-42.351,0-76.8-34.449-76.8-76.8c0-4.719,3.823-8.533,8.533-8.533h34.133   c4.71,0,8.533,3.814,8.533,8.533c0,14.114,11.486,25.6,25.6,25.6c14.114,0,25.6-11.486,25.6-25.6v-102.4h-34.133   c-4.71,0-8.533-3.814-8.533-8.533V204.8c0-4.719,3.823-8.533,8.533-8.533h34.133V153.6c0-42.351,34.449-76.8,76.8-76.8   s76.8,34.449,76.8,76.8c0,4.719-3.823,8.533-8.533,8.533H332.8c-4.71,0-8.533-3.814-8.533-8.533c0-14.114-11.486-25.6-25.6-25.6   s-25.6,11.486-25.6,25.6v42.667H307.2c4.71,0,8.533,3.814,8.533,8.533v34.133c0,4.719-3.823,8.533-8.533,8.533h-34.133v102.4   C273.067,392.218,238.618,426.667,196.267,426.667z M137.139,358.4c4.156,28.911,29.082,51.2,59.127,51.2   c32.939,0,59.733-26.803,59.733-59.733V238.933c0-4.719,3.823-8.533,8.533-8.533h34.133v-17.067h-34.133   c-4.71,0-8.533-3.814-8.533-8.533v-51.2c0-23.526,19.14-42.667,42.667-42.667c20.608,0,37.845,14.686,41.813,34.133h17.314   c-4.156-28.911-29.082-51.2-59.127-51.2c-32.939,0-59.733,26.803-59.733,59.733v51.2c0,4.719-3.823,8.533-8.533,8.533h-34.133   V230.4H230.4c4.71,0,8.533,3.814,8.533,8.533v110.933c0,23.526-19.14,42.667-42.667,42.667c-20.608,0-37.845-14.686-41.813-34.133   H137.139z" fill="#000000" data-original="#4d007e" class=""/>
	<path style="" d="M392.533,401.067c-2.185,0-4.369-0.836-6.033-2.5L318.234,330.3c-3.337-3.337-3.337-8.73,0-12.066   c3.328-3.337,8.738-3.337,12.066,0l68.267,68.267c3.337,3.337,3.337,8.73,0,12.066C396.902,400.23,394.718,401.067,392.533,401.067   z" fill="#000000" data-original="#4d007e" class=""/>
	<path style="" d="M324.267,401.067c-2.185,0-4.369-0.836-6.033-2.5c-3.337-3.337-3.337-8.73,0-12.066l68.267-68.267   c3.328-3.337,8.738-3.337,12.066,0c3.337,3.337,3.337,8.73,0,12.066L330.3,398.566C328.636,400.23,326.451,401.067,324.267,401.067   z" fill="#000000" data-original="#4d007e" class=""/>
</g>















</g>
</svg>
