<?xml version="1.0"?>
<svg xmlns="http://www.w3.org/2000/svg" xmlns:xlink="http://www.w3.org/1999/xlink" xmlns:svgjs="http://svgjs.com/svgjs" version="1.1" width="512" height="512" x="0" y="0" viewBox="0 0 24 24" style="enable-background:new 0 0 512 512" xml:space="preserve" class=""><g><path xmlns="http://www.w3.org/2000/svg" d="m16.25 14.75h-6v-1c0-.665-.808-1.002-1.28-.53l-1.75 1.75c-.293.293-.293.768 0 1.061l1.75 1.75c.469.469 1.28.141 1.28-.53v-1h6c.414 0 .75-.336.75-.75s-.336-.751-.75-.751z" fill="#cfcfcf" data-original="#000000" style="" class=""/><path xmlns="http://www.w3.org/2000/svg" d="m16.78 19.97-1.75-1.75c-.475-.474-1.28-.132-1.28.53v1h-6c-.414 0-.75.336-.75.75s.336.75.75.75h6v1c0 .669.811.999 1.28.53l1.75-1.75c.293-.293.293-.767 0-1.06z" fill="#cfcfcf" data-original="#000000" style="" class=""/><path xmlns="http://www.w3.org/2000/svg" d="m18.671 4.93c-1.308-2.401-3.879-3.93-6.671-3.93-3.545 0-6.62 2.465-7.397 5.829-2.583.271-4.603 2.442-4.603 5.071 0 2.576 1.972 5.1 5.447 5.1-.289-.443-.447-.959-.447-1.5 0-1.403.768-1.906 2.556-3.694.79-.791 1.967-1.023 3-.595.705.293 1.233.856 1.5 1.54h4.195c1.517 0 2.75 1.233 2.75 2.75 0 .536-.16 1.033-.427 1.457 3.049-.348 5.426-2.917 5.426-6.028 0-3.067-2.307-5.623-5.329-6z" fill="#cfcfcf" data-original="#000000" style="" class=""/></g></svg>
