<?xml version="1.0"?>
<svg xmlns="http://www.w3.org/2000/svg" xmlns:xlink="http://www.w3.org/1999/xlink" xmlns:svgjs="http://svgjs.com/svgjs" version="1.1" width="512" height="512" x="0" y="0" viewBox="0 0 24 24" style="enable-background:new 0 0 512 512" xml:space="preserve"><g><path xmlns="http://www.w3.org/2000/svg" d="m21.25 0h-18.5c-1.517 0-2.75 1.233-2.75 2.75v18.5c0 1.517 1.233 2.75 2.75 2.75h18.5c1.517 0 2.75-1.233 2.75-2.75v-18.5c0-1.517-1.233-2.75-2.75-2.75zm-11 11.25c.414 0 .75.336.75.75s-.336.75-.75.75h-2.75v2.5c0 .414-.336.75-.75.75s-.75-.336-.75-.75v-4.5c0-1.517 1.233-2.75 2.75-2.75h1.5c.414 0 .75.336.75.75s-.336.75-.75.75h-1.5c-.689 0-1.25.561-1.25 1.25v.5zm7.75 4c0 .344-.233.644-.566.728-.062.014-.123.022-.184.022-.271 0-.527-.147-.66-.395l-2.09-3.881v3.525c0 .414-.336.75-.75.75s-.75-.335-.75-.749v-6.5c0-.344.233-.644.566-.728.337-.08.682.07.844.372l2.09 3.881v-3.525c0-.414.336-.75.75-.75s.75.336.75.75z" fill="#6d96cb" data-original="#000000" style=""/></g></svg>
